<?xml version="1.0" standalone="no"?>
<!DOCTYPE svg PUBLIC "-//W3C//DTD SVG 20010904//EN"
 "http://www.w3.org/TR/2001/REC-SVG-20010904/DTD/svg10.dtd">
<svg version="1.0" xmlns="http://www.w3.org/2000/svg"
 width="853.000000pt" height="1280.000000pt" viewBox="0 0 853.000000 1280.000000"
 preserveAspectRatio="xMidYMid meet">
<metadata>
Created by potrace 1.15, written by Peter Selinger 2001-2017
</metadata>
<g transform="translate(0.000000,1280.000000) scale(0.100000,-0.100000)"
fill="#ffffff" stroke="none">
<path d="M4606 11199 c-109 -15 -179 -36 -330 -100 -154 -66 -237 -121 -302
-201 -39 -47 -91 -155 -80 -166 9 -9 111 40 141 68 145 133 409 247 635 275
74 9 299 106 271 117 -34 12 -262 17 -335 7z"/>
<path d="M5451 11050 c-25 -5 -48 -13 -53 -18 -12 -12 97 -77 152 -92 174 -44
334 -144 504 -314 69 -69 144 -131 206 -172 54 -35 101 -64 105 -64 10 0 -71
146 -120 215 -85 120 -161 191 -313 293 -105 71 -169 107 -226 126 -86 30
-187 40 -255 26z"/>
<path d="M4590 10706 c-25 -8 -76 -23 -115 -34 -88 -24 -142 -51 -227 -114
-131 -96 -255 -250 -314 -388 -17 -41 -43 -95 -58 -120 -29 -52 -62 -180 -72
-280 l-6 -68 -137 -82 c-456 -272 -823 -643 -1119 -1130 -355 -586 -549 -1201
-602 -1910 -5 -74 -10 -165 -10 -202 l0 -68 -52 0 c-29 0 -70 -3 -90 -6 -36
-6 -38 -5 -38 22 0 81 -83 170 -255 274 -104 62 -109 67 -286 272 -100 115
-197 220 -217 233 -86 56 -186 54 -236 -6 -21 -25 -26 -41 -26 -85 0 -72 19
-107 179 -333 131 -184 131 -184 131 -241 0 -83 -14 -93 -105 -75 -503 99
-484 97 -536 62 -53 -35 -82 -99 -76 -170 3 -32 13 -69 22 -83 9 -14 15 -27
13 -28 -2 -1 -15 -10 -30 -19 -78 -49 -95 -167 -36 -250 11 -15 42 -40 69 -56
41 -23 47 -30 35 -40 -8 -7 -19 -34 -26 -60 -22 -93 28 -188 112 -213 41 -12
41 -11 38 -80 -4 -133 117 -181 295 -117 50 18 80 21 180 20 293 -4 647 86
735 186 l29 33 114 0 114 0 17 -92 c47 -263 163 -653 261 -882 302 -706 785
-1340 1294 -1700 53 -37 87 -68 80 -70 -8 -3 -60 -16 -117 -30 -196 -49 -417
-145 -572 -249 -115 -77 -239 -207 -284 -297 -117 -238 -67 -472 118 -556 203
-92 1289 -123 1725 -49 97 17 149 44 210 110 68 74 94 142 99 256 5 115 -16
213 -73 332 -20 44 -35 80 -33 82 2 1 55 -2 118 -7 63 -5 190 -8 283 -6 92 2
167 3 167 2 0 -1 -14 -33 -31 -71 -109 -243 -85 -487 61 -615 61 -54 83 -64
181 -82 152 -28 359 -39 699 -39 348 -1 537 10 775 44 209 30 279 68 336 185
53 107 48 261 -12 402 -86 199 -353 402 -694 526 -55 20 -108 40 -118 44 -14
6 5 22 87 75 373 242 628 497 881 877 250 376 468 869 599 1355 105 389 184
960 185 1340 2 631 -128 1225 -380 1727 -195 388 -413 694 -703 984 -181 181
-310 288 -502 413 -135 90 -370 216 -415 225 -56 10 -86 33 -93 73 -48 266
-168 469 -351 592 -104 70 -195 96 -325 95 -121 0 -189 -21 -310 -94 -38 -23
-76 -40 -84 -37 -8 3 -25 31 -39 61 -76 166 -287 277 -437 232z m282 -2664
c163 -65 264 -152 362 -311 86 -141 108 -216 212 -731 52 -261 133 -648 179
-861 148 -675 180 -901 180 -1259 0 -248 -1 -258 -29 -365 -44 -171 -71 -211
-181 -262 -55 -26 -69 -28 -180 -28 -149 0 -176 12 -293 120 -119 111 -200
240 -256 407 -28 82 -110 469 -245 1148 -180 908 -198 1032 -211 1448 -9 286
-5 352 30 480 49 180 127 250 277 252 48 0 81 -8 155 -38z"/>
</g>
</svg>
