<?xml version="1.0" standalone="no"?>
<!DOCTYPE svg PUBLIC "-//W3C//DTD SVG 20010904//EN"
 "http://www.w3.org/TR/2001/REC-SVG-20010904/DTD/svg10.dtd">
<svg version="1.0" xmlns="http://www.w3.org/2000/svg"
 width="853.000000pt" height="1280.000000pt" viewBox="0 0 853.000000 1280.000000"
 preserveAspectRatio="xMidYMid meet">
<metadata>
Created by potrace 1.15, written by Peter Selinger 2001-2017
</metadata>
<g transform="translate(0.000000,1280.000000) scale(0.100000,-0.100000)"
fill="#ffffff" stroke="none">
<path d="M4400 11220 c-116 -16 -196 -40 -337 -101 -181 -78 -259 -133 -324
-225 -38 -56 -73 -144 -56 -144 26 0 124 53 157 84 125 119 335 210 586 255
129 23 342 111 298 123 -45 12 -256 17 -324 8z"/>
<path d="M5260 11073 c-14 -2 -40 -9 -58 -15 l-34 -10 52 -35 c29 -19 84 -44
123 -54 168 -46 353 -165 508 -326 57 -59 122 -113 189 -157 56 -37 104 -65
106 -64 6 7 -68 142 -114 208 -83 119 -177 206 -327 305 -149 97 -214 128
-309 145 -60 10 -90 11 -136 3z"/>
<path d="M4410 10732 c-14 -2 -52 -11 -85 -21 -33 -10 -85 -26 -115 -34 -152
-45 -414 -294 -476 -453 -10 -27 -36 -82 -57 -122 -56 -110 -78 -198 -84 -337
-6 -134 9 -220 52 -304 l24 -49 -121 -42 c-570 -195 -1014 -458 -1258 -744
-83 -98 -209 -281 -226 -330 -66 -186 120 -522 319 -577 24 -6 70 -5 148 6
185 24 266 18 435 -30 193 -57 317 -140 365 -248 l24 -52 3 -567 3 -566 -53
-6 c-29 -3 -103 -7 -164 -10 l-111 -5 -7 67 c-3 37 -6 100 -6 140 l0 72 -225
0 c-225 0 -225 0 -225 22 0 75 -98 177 -262 275 -98 59 -110 70 -238 219 -205
239 -240 275 -295 300 -123 58 -229 3 -228 -117 1 -61 22 -100 179 -321 129
-182 134 -192 134 -240 0 -27 -5 -59 -11 -70 -14 -25 -27 -24 -335 37 -253 50
-270 49 -327 -14 -52 -58 -62 -165 -21 -228 13 -20 12 -23 -15 -39 -32 -19
-65 -72 -76 -121 -14 -68 41 -162 115 -194 21 -10 28 -19 24 -29 -39 -90 -42
-127 -15 -185 22 -49 48 -73 98 -90 l38 -13 5 -69 c3 -37 12 -78 19 -89 41
-61 136 -74 261 -35 63 20 99 24 225 26 307 5 605 83 705 186 l38 39 221 0
221 0 0 79 0 79 143 7 c79 4 152 6 163 3 19 -3 19 -23 22 -1177 2 -1305 8
-1197 -66 -1246 -92 -61 -231 -89 -513 -105 -446 -25 -562 -40 -627 -84 -68
-45 -137 -136 -156 -205 -34 -121 -15 -314 40 -409 23 -39 25 -48 18 -125 -13
-168 57 -294 198 -355 35 -14 262 -47 428 -62 203 -17 724 -23 935 -10 105 6
375 15 600 20 226 5 459 14 518 19 81 7 128 6 185 -4 168 -29 362 -40 722 -40
375 0 545 10 790 45 158 23 220 49 280 117 28 33 47 68 63 119 l22 72 80 16
c177 38 320 80 341 102 26 25 76 174 100 299 23 117 29 266 14 335 -26 117
-92 212 -158 226 -15 3 -67 16 -117 29 -129 35 -240 52 -485 75 -118 11 -252
29 -297 40 -83 20 -153 45 -163 58 -3 4 -31 28 -62 55 -38 32 -66 66 -85 105
l-28 57 -5 676 -5 677 53 17 c29 9 68 30 87 47 l35 30 11 -31 c14 -41 35 -51
107 -51 114 0 235 57 270 127 44 87 89 335 79 437 -3 33 -21 106 -39 161 l-33
100 0 212 0 211 -30 43 c-41 59 -110 106 -202 138 l-78 27 -3 40 c-16 250 -93
551 -173 675 -82 126 -79 101 -80 634 -1 470 -1 474 21 520 50 104 96 133 543
344 26 13 61 39 77 59 33 40 70 128 70 167 0 13 5 27 10 30 19 11 11 140 -15
241 -30 119 -110 286 -158 333 l-36 34 -254 -2 -253 -2 -22 112 c-41 206 -109
339 -241 469 -137 136 -250 185 -421 184 -125 0 -195 -21 -307 -90 -83 -52
-106 -51 -123 1 -17 53 -93 149 -145 185 -75 52 -189 83 -265 72z"/>
</g>
</svg>
