<?xml version="1.0" standalone="no"?>
<!DOCTYPE svg PUBLIC "-//W3C//DTD SVG 20010904//EN"
 "http://www.w3.org/TR/2001/REC-SVG-20010904/DTD/svg10.dtd">
<svg version="1.0" xmlns="http://www.w3.org/2000/svg"
 width="853.000000pt" height="1280.000000pt" viewBox="0 0 853.000000 1280.000000"
 preserveAspectRatio="xMidYMid meet">
<metadata>
Created by potrace 1.15, written by Peter Selinger 2001-2017
</metadata>
<g transform="translate(0.000000,1280.000000) scale(0.100000,-0.100000)"
fill="#ffffff" stroke="none">
<path d="M4036 11209 c-135 -11 -223 -35 -379 -100 -151 -64 -248 -127 -305
-199 -38 -46 -85 -143 -80 -164 5 -21 113 35 188 99 123 105 337 193 553 230
79 14 288 89 321 116 8 7 -62 16 -164 23 -25 1 -85 -1 -134 -5z"/>
<path d="M4802 11050 c-18 -4 -35 -10 -38 -12 -10 -10 119 -80 173 -94 79 -20
209 -83 301 -146 42 -29 129 -104 192 -167 63 -62 133 -125 155 -139 22 -14
66 -42 98 -63 31 -21 57 -35 57 -32 0 15 -91 175 -128 226 -87 117 -163 187
-313 287 -177 118 -262 151 -387 149 -42 -1 -92 -5 -110 -9z"/>
<path d="M3905 10695 c-38 -13 -78 -24 -88 -24 -10 -1 -41 -13 -70 -27 -169
-85 -371 -297 -432 -455 -14 -34 -38 -85 -55 -115 -49 -87 -71 -182 -78 -337
l-7 -137 -150 -65 c-541 -235 -967 -569 -1314 -1032 -183 -245 -347 -538 -414
-743 -60 -180 -72 -255 -72 -445 0 -154 2 -176 23 -232 41 -108 135 -192 303
-273 79 -38 220 -77 238 -65 5 2 27 -20 50 -50 37 -49 41 -59 41 -114 0 -64
-18 -96 -49 -87 -66 19 -467 90 -511 91 -66 0 -108 -25 -136 -82 -23 -49 -24
-137 -1 -182 9 -19 16 -35 15 -36 -66 -36 -98 -90 -98 -162 0 -67 33 -120 96
-158 l50 -30 -18 -30 c-22 -37 -24 -134 -3 -174 19 -38 68 -78 105 -86 33 -7
33 -8 31 -80 -2 -61 22 -105 72 -128 48 -23 110 -21 208 7 69 20 115 25 259
29 309 9 575 81 673 182 l34 35 222 0 221 0 0 79 0 79 63 7 c34 3 94 5 134 3
l72 -3 -90 -165 c-219 -401 -560 -935 -914 -1430 -223 -311 -573 -784 -699
-943 -136 -172 -160 -207 -261 -390 -103 -187 -136 -274 -143 -378 -4 -67 -1
-84 20 -130 14 -30 40 -69 59 -88 38 -37 122 -81 156 -81 34 0 36 -14 13 -96
-29 -103 -26 -237 8 -305 56 -114 138 -161 334 -189 242 -34 423 -44 813 -44
482 -1 754 22 846 69 51 27 128 111 155 169 38 83 49 164 35 260 -6 45 -14 91
-17 104 l-6 22 204 0 204 0 -15 -88 c-27 -163 12 -306 111 -405 62 -62 109
-82 238 -101 442 -64 1419 -31 1619 54 l50 22 43 -29 c66 -44 93 -53 163 -53
230 0 435 138 660 445 210 287 355 603 420 915 56 264 68 440 61 855 -9 535
-30 709 -105 860 -42 85 -112 166 -158 182 -70 26 -145 38 -233 37 -239 -3
-459 -116 -613 -316 -34 -44 -88 -113 -119 -154 -102 -130 -235 -223 -373
-259 -74 -19 -205 -20 -248 -1 -42 17 -156 130 -189 188 -36 60 -65 166 -78
278 -10 85 -9 101 8 150 47 136 125 243 320 442 l154 157 31 -20 c18 -10 45
-19 60 -19 24 0 27 -3 22 -21 -11 -33 5 -116 29 -151 44 -66 217 -136 357
-145 99 -6 144 5 194 49 l34 29 7 -25 c14 -56 73 -73 175 -52 172 37 225 108
265 356 24 147 19 231 -22 366 -34 110 -37 129 -37 254 -1 74 2 154 7 178 21
104 -87 226 -241 272 -24 7 -43 16 -43 19 0 3 29 62 64 131 199 387 292 751
290 1140 -1 249 -37 435 -130 672 -160 407 -423 737 -764 961 -99 64 -299 171
-308 163 -2 -2 -51 15 -110 39 l-107 43 -7 104 c-25 409 -256 720 -582 784
-73 15 -99 16 -160 6 -94 -15 -168 -43 -245 -92 -34 -22 -70 -40 -81 -40 -14
0 -29 19 -54 69 -96 190 -294 274 -491 206z m-561 -3279 c113 -29 167 -58 219
-115 83 -92 112 -198 104 -381 -9 -185 -50 -352 -154 -622 l-46 -118 -141 -1
c-78 0 -171 -3 -208 -8 l-67 -7 -3 141 -3 140 -225 0 -225 0 -6 35 c-15 93
-103 177 -301 289 -31 17 -69 46 -83 62 l-25 31 66 50 c37 28 139 120 227 204
181 174 274 249 373 300 l69 35 165 -4 c134 -4 183 -10 264 -31z"/>
</g>
</svg>
