<?xml version="1.0" standalone="no"?>
<!DOCTYPE svg PUBLIC "-//W3C//DTD SVG 20010904//EN"
 "http://www.w3.org/TR/2001/REC-SVG-20010904/DTD/svg10.dtd">
<svg version="1.0" xmlns="http://www.w3.org/2000/svg"
 width="853.000000pt" height="1280.000000pt" viewBox="0 0 853.000000 1280.000000"
 preserveAspectRatio="xMidYMid meet">
<metadata>
Created by potrace 1.15, written by Peter Selinger 2001-2017
</metadata>
<g transform="translate(0.000000,1280.000000) scale(0.100000,-0.100000)"
fill="#ffffff" stroke="none">
<path d="M5046 10875 c-109 -18 -127 -24 -291 -93 -152 -64 -222 -109 -292
-186 -47 -52 -111 -177 -94 -184 16 -6 137 57 161 83 99 108 351 218 600 260
102 17 323 108 293 120 -38 14 -287 15 -377 0z"/>
<path d="M5763 10639 c-79 -15 -80 -22 -16 -62 33 -19 81 -41 108 -48 160 -40
338 -152 505 -317 63 -63 133 -126 155 -140 22 -14 66 -42 98 -63 31 -21 57
-35 57 -32 0 3 -19 42 -43 87 -93 177 -200 293 -385 418 -151 102 -235 142
-332 157 -73 12 -88 12 -147 0z"/>
<path d="M4885 10375 c-38 -13 -79 -24 -90 -25 -31 0 -134 -53 -202 -103 -133
-99 -269 -263 -317 -383 -30 -74 -84 -175 -99 -186 -6 -3 -31 -9 -56 -13 -84
-12 -326 -73 -457 -115 -356 -115 -650 -270 -879 -462 -113 -95 -130 -113
-204 -222 -97 -143 -134 -281 -135 -501 0 -194 32 -312 110 -404 71 -84 132
-80 369 29 308 140 421 180 585 205 283 44 487 -11 651 -174 155 -154 221
-368 223 -721 1 -151 -2 -186 -21 -253 -42 -153 -160 -284 -368 -409 -33 -20
-201 -93 -374 -163 -173 -70 -328 -137 -344 -148 -47 -35 -125 -145 -143 -202
l-17 -53 -121 -6 c-67 -4 -160 -9 -207 -12 l-85 -6 -12 86 c-11 82 -32 133
-67 159 -18 14 -68 0 -158 -42 -110 -53 -167 -61 -230 -33 -119 53 -252 252
-293 440 -8 37 -17 131 -21 209 -6 138 -7 143 -35 177 -42 51 -92 64 -157 40
-72 -26 -179 -109 -215 -167 -38 -62 -39 -131 -2 -274 51 -200 31 -255 -112
-304 -59 -20 -252 -49 -329 -49 -92 0 -133 -83 -133 -269 0 -263 66 -505 159
-582 77 -63 193 -72 571 -43 113 9 358 17 546 19 377 4 397 7 433 66 21 35 30
74 40 183 l6 71 125 8 c69 4 161 6 204 5 l80 -3 12 -85 c38 -260 142 -465 268
-533 63 -34 195 -28 427 20 149 30 206 38 299 38 142 0 186 -15 341 -120 347
-235 477 -401 524 -672 34 -195 8 -487 -65 -712 -43 -135 -75 -188 -164 -277
-91 -91 -193 -149 -326 -185 -96 -26 -355 -37 -485 -20 -219 29 -539 110 -940
237 l-210 67 -150 1 c-171 1 -232 -11 -355 -71 -57 -27 -94 -55 -155 -117
-147 -150 -191 -260 -183 -464 4 -99 10 -130 36 -199 70 -188 225 -369 430
-503 l24 -15 -35 -45 c-47 -61 -82 -135 -101 -207 -21 -79 -21 -206 0 -266 21
-62 93 -140 157 -171 136 -66 812 -111 1310 -87 245 12 437 32 498 52 98 34
192 144 224 264 l18 65 173 0 173 0 11 -42 c39 -155 132 -260 256 -293 224
-59 958 -69 1407 -19 261 28 313 43 388 111 65 59 92 122 97 228 8 183 -47
314 -195 464 -52 52 -90 97 -86 101 4 4 51 39 104 78 453 336 760 778 909
1308 71 254 108 520 120 859 15 432 -23 680 -144 940 -141 301 -408 604 -706
803 -93 63 -249 144 -260 137 -12 -7 -17 11 -39 146 -12 68 -25 137 -29 153
-7 27 -2 36 77 115 205 205 361 522 411 832 11 68 24 149 30 180 24 132 4 374
-46 547 -72 251 -172 419 -364 612 -95 96 -246 224 -286 242 -20 9 -22 19 -27
167 -6 187 -25 270 -97 416 -190 390 -598 522 -915 294 -25 -18 -50 -29 -59
-26 -8 3 -29 34 -47 68 -60 121 -163 202 -287 228 -75 16 -107 13 -187 -14z
m1505 -3821 c0 -19 -4 -24 -17 -21 -10 3 -36 8 -58 12 l-40 8 40 12 c63 20 75
18 75 -11z"/>
</g>
</svg>
