<?xml version="1.0" standalone="no"?>
<!DOCTYPE svg PUBLIC "-//W3C//DTD SVG 20010904//EN"
 "http://www.w3.org/TR/2001/REC-SVG-20010904/DTD/svg10.dtd">
<svg version="1.0" xmlns="http://www.w3.org/2000/svg"
 width="853.000000pt" height="1280.000000pt" viewBox="0 0 853.000000 1280.000000"
 preserveAspectRatio="xMidYMid meet">
<metadata>
Created by potrace 1.15, written by Peter Selinger 2001-2017
</metadata>
<g transform="translate(0.000000,1280.000000) scale(0.100000,-0.100000)"
fill="#ffffff" stroke="none">
<path d="M5110 11469 c-136 -13 -225 -37 -375 -102 -157 -69 -252 -132 -307
-204 -40 -53 -77 -127 -78 -155 0 -28 96 21 189 96 139 113 338 196 556 232
78 13 286 88 318 115 9 7 -59 16 -163 23 -30 1 -93 -1 -140 -5z"/>
<path d="M5883 11309 c-18 -5 -33 -13 -33 -17 1 -14 107 -71 155 -83 172 -43
330 -143 515 -326 63 -62 135 -125 160 -140 25 -14 66 -41 93 -59 26 -19 47
-29 47 -23 0 19 -77 153 -127 221 -85 115 -172 196 -308 286 -139 91 -190 117
-270 138 -57 16 -184 17 -232 3z"/>
<path d="M4985 10955 c-38 -13 -79 -24 -89 -24 -29 -1 -142 -67 -213 -123
-118 -93 -254 -262 -287 -355 -7 -21 -32 -74 -53 -118 -61 -122 -78 -196 -78
-355 0 -123 3 -143 29 -221 l29 -86 -908 -1315 -909 -1315 -43 33 c-96 74
-215 70 -263 -8 -39 -64 -19 -144 64 -266 20 -30 33 -59 29 -65 -44 -76 -227
-325 -236 -322 -7 1 -40 9 -73 15 -55 11 -66 10 -106 -8 -53 -23 -83 -62 -97
-123 -11 -47 0 -122 21 -147 9 -11 5 -19 -20 -39 -49 -38 -73 -93 -71 -162 l2
-57 -210 -304 c-263 -381 -302 -445 -341 -562 -169 -513 -65 -1175 215 -1369
90 -63 7 -59 1389 -59 l1263 0 26 -34 c16 -21 29 -56 35 -92 13 -79 25 -685
16 -805 l-8 -97 -91 -7 c-419 -32 -839 -204 -1072 -439 -126 -127 -185 -261
-185 -420 0 -101 28 -175 90 -236 58 -59 120 -83 270 -104 222 -31 328 -38
703 -43 516 -8 846 16 952 67 26 13 71 51 106 89 l61 67 64 -7 c34 -5 135 -11
224 -14 l160 -5 37 -41 c121 -134 243 -154 933 -154 354 1 476 4 597 18 294
33 362 51 436 116 134 119 132 382 -4 586 -123 183 -378 347 -711 456 l-157
52 -3 581 c-3 530 -2 585 14 624 23 56 115 152 203 209 175 115 277 225 291
314 4 22 11 42 15 45 15 9 11 1218 -3 1249 -18 40 -53 52 -157 54 -52 1 -98 4
-102 6 -4 3 -15 35 -25 72 -20 72 -25 255 -9 360 9 65 -17 126 -78 179 -48 40
-145 89 -198 99 l-35 7 -13 126 c-6 70 -18 163 -26 207 -12 67 -15 288 -15
1361 l0 1280 65 98 c66 101 108 197 141 321 28 104 26 370 -4 476 -47 174
-117 296 -247 437 -88 94 -106 106 -213 133 -172 45 -346 43 -538 -6 -53 -14
-97 -24 -98 -23 -30 47 -84 112 -111 132 -109 84 -249 106 -380 61z m-1046
-3133 c30 -15 64 -40 75 -56 21 -27 21 -37 26 -881 l5 -853 -105 -6 c-58 -3
-144 -9 -192 -11 l-88 -6 0 141 0 140 -224 0 -224 0 -10 43 c-16 61 -60 116
-141 177 -39 29 -71 55 -71 57 0 7 761 1227 775 1241 13 14 81 41 105 42 9 0
40 -13 69 -28z m100 -2189 c-3 -73 -5 -80 -35 -110 l-32 -33 -391 0 c-218 0
-391 4 -391 9 0 5 7 15 16 22 13 11 66 14 238 14 l221 0 0 80 0 80 90 6 c50 3
134 6 188 7 l98 2 -2 -77z"/>
</g>
</svg>
