<?xml version="1.0" standalone="no"?>
<!DOCTYPE svg PUBLIC "-//W3C//DTD SVG 20010904//EN"
 "http://www.w3.org/TR/2001/REC-SVG-20010904/DTD/svg10.dtd">
<svg version="1.0" xmlns="http://www.w3.org/2000/svg"
 width="853.000000pt" height="1280.000000pt" viewBox="0 0 853.000000 1280.000000"
 preserveAspectRatio="xMidYMid meet">
<metadata>
Created by potrace 1.15, written by Peter Selinger 2001-2017
</metadata>
<g transform="translate(0.000000,1280.000000) scale(0.100000,-0.100000)"
fill="#ffffff" stroke="none">
<path d="M4942 11459 c-136 -10 -226 -34 -385 -100 -161 -69 -249 -127 -312
-206 -38 -50 -92 -160 -82 -170 11 -10 130 58 191 109 127 107 339 195 559
233 62 11 131 33 212 68 l120 52 -50 7 c-85 11 -156 13 -253 7z"/>
<path d="M5702 11300 c-18 -4 -35 -10 -38 -12 -11 -11 110 -78 168 -93 159
-41 346 -160 507 -324 61 -63 129 -119 195 -162 56 -36 103 -65 105 -63 6 6
-89 171 -135 235 -78 106 -172 191 -314 284 -169 111 -258 145 -375 144 -44
-1 -95 -5 -113 -9z"/>
<path d="M4805 10945 c-38 -13 -78 -24 -88 -24 -22 -1 -108 -44 -167 -84 -113
-77 -283 -269 -324 -367 -10 -25 -34 -78 -54 -117 l-35 -73 -187 0 c-214 0
-321 -15 -439 -60 -218 -84 -407 -278 -589 -605 -184 -330 -333 -846 -522
-1815 -108 -553 -255 -1254 -291 -1392 -11 -44 -39 -52 -39 -13 0 73 -98 175
-258 270 -98 58 -105 65 -264 250 -187 218 -208 239 -259 265 -120 62 -227 19
-237 -93 -6 -75 11 -108 172 -334 l137 -192 -3 -62 c-2 -45 -8 -65 -20 -72
-16 -11 -251 27 -454 74 -64 14 -89 16 -120 8 -70 -20 -125 -99 -124 -179 1
-22 12 -60 34 -111 5 -11 1 -18 -12 -21 -10 -3 -32 -22 -47 -42 -33 -44 -45
-127 -25 -176 14 -34 79 -96 116 -110 l24 -10 -20 -32 c-14 -24 -20 -51 -20
-94 0 -79 25 -119 99 -155 l54 -27 1 -65 c1 -58 4 -69 31 -97 54 -56 118 -61
260 -18 56 16 102 21 225 23 301 4 609 87 695 187 l33 39 183 -7 c173 -7 187
-9 248 -36 35 -16 251 -93 480 -170 835 -281 1285 -466 1397 -573 45 -43 68
-95 112 -255 23 -82 27 -114 27 -235 -1 -162 -22 -262 -78 -353 -48 -81 -174
-194 -264 -239 l-76 -38 -166 -3 c-182 -4 -307 8 -816 78 -362 50 -517 64
-638 56 -180 -11 -218 -28 -288 -123 -57 -77 -88 -148 -111 -261 -17 -83 -19
-122 -15 -268 6 -188 15 -225 70 -282 61 -63 295 -191 484 -263 l61 -23 -77
-82 c-122 -129 -181 -262 -181 -415 0 -92 24 -161 78 -221 59 -65 120 -94 234
-113 395 -63 1191 -73 1558 -19 128 19 176 41 245 116 73 78 96 143 103 281
l5 107 41 0 c23 0 96 7 161 15 174 22 159 27 152 -52 -15 -193 71 -374 208
-434 109 -48 475 -74 930 -66 386 8 660 32 802 72 151 43 241 207 213 387 -24
158 -87 275 -208 390 -127 120 -296 218 -530 309 -22 8 -19 12 45 68 106 91
301 296 392 410 207 260 433 648 540 926 110 284 170 647 151 915 -22 326 -92
586 -240 885 -221 450 -562 834 -950 1070 -99 61 -241 132 -275 139 -11 2 -65
22 -120 44 -259 103 -558 178 -875 218 -95 13 -685 31 -1052 34 -53 0 -68 3
-68 15 0 8 -10 33 -22 56 -12 23 -26 77 -31 124 -10 78 -9 88 16 164 31 96 69
155 105 169 17 6 271 13 652 16 823 8 1239 29 1688 86 336 43 395 61 520 155
206 155 437 565 533 941 104 413 83 707 -61 851 -79 80 -122 87 -603 93 l-408
5 -32 75 c-93 213 -257 369 -452 426 -150 44 -351 6 -482 -92 -52 -39 -67 -33
-109 46 -99 188 -297 271 -489 205z"/>
</g>
</svg>
