<?xml version="1.0" standalone="no"?>
<!DOCTYPE svg PUBLIC "-//W3C//DTD SVG 20010904//EN"
 "http://www.w3.org/TR/2001/REC-SVG-20010904/DTD/svg10.dtd">
<svg version="1.0" xmlns="http://www.w3.org/2000/svg"
 width="853.000000pt" height="1280.000000pt" viewBox="0 0 853.000000 1280.000000"
 preserveAspectRatio="xMidYMid meet">
<metadata>
Created by potrace 1.15, written by Peter Selinger 2001-2017
</metadata>
<g transform="translate(0.000000,1280.000000) scale(0.100000,-0.100000)"
fill="#ffffff" stroke="none">
<path d="M5026 11249 c-111 -15 -180 -36 -325 -100 -154 -67 -223 -111 -285
-180 -55 -61 -117 -189 -91 -189 22 0 127 58 161 90 127 117 340 209 575 249
73 13 133 31 195 58 49 22 100 44 113 48 20 6 22 9 8 16 -23 14 -272 19 -351
8z"/>
<path d="M5868 11098 c-27 -6 -48 -14 -48 -18 0 -17 101 -72 167 -90 170 -49
348 -163 507 -325 58 -60 127 -117 191 -159 55 -35 101 -63 103 -61 8 8 -81
160 -134 232 -85 114 -159 183 -293 273 -215 143 -338 180 -493 148z"/>
<path d="M5025 10759 c-16 -4 -68 -19 -115 -32 -101 -29 -145 -50 -225 -109
-116 -86 -272 -265 -304 -349 -8 -19 -35 -79 -62 -134 -30 -61 -56 -135 -68
-189 -11 -48 -21 -89 -23 -90 -247 -179 -420 -358 -671 -691 -380 -504 -867
-1348 -1093 -1890 -87 -210 -204 -562 -249 -750 -19 -82 -39 -163 -43 -179
l-7 -29 -35 30 c-42 36 -134 98 -210 141 -43 24 -90 71 -219 222 -229 266
-259 290 -358 290 -60 0 -91 -16 -120 -59 -51 -76 -29 -133 148 -383 l142
-200 1 -59 c2 -96 0 -96 -195 -59 -90 17 -208 40 -262 51 -59 13 -112 18 -132
15 -43 -8 -94 -50 -111 -93 -19 -45 -17 -131 4 -173 l17 -35 -30 -20 c-45 -30
-77 -100 -72 -157 6 -72 40 -114 134 -167 10 -5 8 -16 -7 -46 -50 -99 -6 -213
95 -248 l40 -14 0 -59 c0 -140 96 -184 285 -130 71 20 116 25 265 29 201 6
313 25 480 82 55 19 100 33 100 32 1 -1 16 -65 34 -142 141 -590 308 -1164
446 -1529 166 -440 286 -647 529 -908 43 -47 77 -89 75 -94 -2 -4 -45 -29 -96
-55 -142 -72 -230 -135 -329 -233 -104 -104 -152 -187 -180 -312 -39 -178 22
-336 157 -405 185 -94 1303 -128 1739 -53 98 17 148 43 209 109 68 74 94 141
99 260 l5 100 177 2 177 2 5 -100 c4 -89 9 -107 42 -173 38 -79 97 -140 162
-171 93 -44 372 -68 799 -68 455 0 858 36 971 87 66 30 120 85 153 155 23 49
26 68 25 156 -1 229 -113 406 -361 572 -48 32 -124 76 -168 98 l-80 40 166
165 c239 237 389 448 534 745 179 368 285 738 342 1195 22 178 25 693 5 860
-100 822 -406 1387 -915 1690 -55 32 -113 62 -130 66 -18 3 -72 20 -122 36
-161 52 -295 71 -525 71 -277 1 -608 -47 -973 -138 -76 -19 -140 -35 -142 -35
-2 0 -2 7 2 16 3 9 -2 50 -13 91 -18 71 -18 77 -1 141 24 94 120 285 216 430
45 68 208 288 362 488 153 200 289 379 300 399 20 33 24 35 73 35 128 0 277
65 391 172 197 184 296 445 282 742 -6 138 -34 253 -92 373 -191 394 -581 526
-910 308 -30 -21 -62 -35 -70 -31 -8 3 -28 33 -45 67 -62 121 -171 205 -299
229 -62 11 -84 11 -126 -1z m-39 -4971 c120 -65 235 -207 345 -428 79 -158
131 -317 179 -543 23 -106 50 -232 61 -282 30 -139 35 -291 14 -400 -10 -49
-26 -106 -36 -126 -38 -76 -171 -173 -293 -214 -42 -13 -58 -14 -99 -4 -41 10
-63 25 -142 103 -157 154 -287 380 -394 686 -97 277 -123 393 -141 635 -10
121 -9 151 5 210 17 76 59 175 78 187 7 4 42 10 80 14 72 7 92 18 52 28 -13 3
-36 11 -51 16 l-27 11 22 23 c40 42 206 113 272 115 8 1 42 -13 75 -31z"/>
</g>
</svg>
