<?xml version="1.0" standalone="no"?>
<!DOCTYPE svg PUBLIC "-//W3C//DTD SVG 20010904//EN"
 "http://www.w3.org/TR/2001/REC-SVG-20010904/DTD/svg10.dtd">
<svg version="1.0" xmlns="http://www.w3.org/2000/svg"
 width="853.000000pt" height="1280.000000pt" viewBox="0 0 853.000000 1280.000000"
 preserveAspectRatio="xMidYMid meet">
<metadata>
Created by potrace 1.15, written by Peter Selinger 2001-2017
</metadata>
<g transform="translate(0.000000,1280.000000) scale(0.100000,-0.100000)"
fill="#ffffff" stroke="none">
<path d="M4796 11369 c-38 -5 -95 -16 -128 -24 -67 -18 -288 -111 -356 -151
-62 -36 -148 -118 -178 -169 -29 -51 -56 -125 -44 -125 23 0 138 61 160 85 93
102 346 214 565 251 121 20 359 113 324 126 -34 13 -269 18 -343 7z"/>
<path d="M5645 11219 c-22 -5 -46 -12 -54 -14 -23 -9 99 -80 172 -99 159 -43
311 -140 482 -307 75 -73 155 -141 214 -179 51 -34 95 -59 97 -57 2 2 -12 35
-32 73 -98 185 -212 309 -401 435 -208 139 -338 180 -478 148z"/>
<path d="M4795 10879 c-16 -4 -69 -19 -117 -33 -107 -30 -164 -60 -267 -142
-123 -99 -241 -250 -282 -361 -12 -32 -37 -85 -54 -118 -54 -99 -70 -180 -70
-343 l0 -143 -465 3 -465 3 -60 28 c-33 15 -62 32 -65 36 -11 18 -198 121
-226 125 -16 2 -54 10 -85 17 -121 27 -181 -15 -353 -245 -360 -481 -522 -843
-565 -1266 -23 -214 -11 -380 44 -650 106 -514 216 -786 381 -941 106 -98 205
-134 338 -120 94 9 151 32 221 88 49 39 70 65 249 305 105 142 223 263 296
302 50 27 65 30 207 37 84 5 262 20 395 33 391 41 538 49 743 43 198 -7 291
-20 483 -72 100 -28 142 -53 142 -89 0 -11 -70 -250 -155 -531 -105 -343 -175
-554 -214 -645 -32 -74 -102 -238 -157 -364 l-99 -228 -460 8 c-517 10 -769
11 -865 5 l-65 -5 -3 144 -3 143 -223 -6 -223 -7 -7 38 c-13 86 -97 169 -276
274 -80 47 -96 63 -265 260 -119 139 -194 218 -223 235 -110 65 -224 39 -253
-57 -21 -68 6 -127 156 -339 75 -105 140 -203 145 -217 16 -40 12 -100 -7
-123 -18 -21 -20 -21 -93 -7 -396 78 -453 88 -484 82 -101 -19 -156 -153 -107
-261 l18 -40 -29 -17 c-37 -23 -66 -72 -74 -125 -5 -34 -1 -53 17 -90 21 -42
85 -103 120 -115 9 -3 8 -11 -4 -29 -9 -14 -20 -46 -23 -72 -12 -88 37 -167
121 -194 29 -9 30 -12 31 -72 0 -45 6 -69 21 -89 46 -63 134 -78 245 -41 50
17 102 23 253 29 105 5 229 16 278 25 199 36 363 100 417 161 l29 34 223 2
223 3 3 76 3 77 37 6 c51 9 1212 21 1212 13 0 -4 -118 -271 -261 -594 -463
-1043 -679 -1544 -823 -1915 l-58 -147 -36 -7 c-224 -38 -374 -80 -535 -149
-352 -150 -559 -350 -613 -591 -43 -194 19 -341 172 -411 229 -105 1596 -123
1820 -23 52 23 125 88 160 144 l27 43 46 -9 c25 -5 121 -10 214 -12 l167 -4
29 -38 c38 -53 97 -103 146 -125 135 -60 831 -86 1300 -48 211 16 404 47 461
73 66 30 120 85 153 155 22 49 26 69 25 151 -1 240 -120 419 -393 595 -272
175 -728 305 -983 280 l-67 -7 10 34 c24 81 410 1437 445 1566 31 114 42 141
54 136 97 -42 225 -78 291 -82 89 -5 136 7 185 50 l34 30 11 -31 c14 -41 35
-51 102 -51 86 0 182 34 234 83 38 36 47 54 68 127 34 120 58 293 51 362 -4
31 -20 99 -36 150 -44 138 -55 240 -40 365 7 57 9 119 6 137 -16 82 -127 177
-248 211 l-64 19 -12 123 c-6 67 -25 185 -42 262 l-31 139 396 1469 c218 807
404 1493 412 1523 22 77 27 147 14 192 -22 71 -103 143 -172 152 -19 3 -47 9
-62 15 -95 37 -321 70 -522 78 l-160 6 -1 141 c-1 158 -21 262 -74 388 -91
213 -281 388 -471 433 -157 37 -329 1 -465 -97 -55 -40 -67 -35 -108 48 -36
69 -115 153 -175 184 -43 21 -158 50 -196 49 -11 -1 -33 -5 -50 -10z"/>
</g>
</svg>
