<?xml version="1.0" standalone="no"?>
<!DOCTYPE svg PUBLIC "-//W3C//DTD SVG 20010904//EN"
 "http://www.w3.org/TR/2001/REC-SVG-20010904/DTD/svg10.dtd">
<svg version="1.0" xmlns="http://www.w3.org/2000/svg"
 width="853.000000pt" height="1280.000000pt" viewBox="0 0 853.000000 1280.000000"
 preserveAspectRatio="xMidYMid meet">
<metadata>
Created by potrace 1.15, written by Peter Selinger 2001-2017
</metadata>
<g transform="translate(0.000000,1280.000000) scale(0.100000,-0.100000)"
fill="#ffffff" stroke="none">
<path d="M4515 10920 c-72 -13 -140 -35 -245 -79 -173 -74 -263 -131 -320
-204 -40 -51 -96 -164 -87 -173 10 -11 122 49 170 90 149 126 351 212 589 251
59 9 123 29 197 62 61 26 111 51 111 54 0 10 -114 19 -219 18 -53 0 -141 -9
-196 -19z"/>
<path d="M5403 10779 c-24 -6 -43 -13 -43 -17 1 -14 127 -80 175 -91 71 -17
225 -92 304 -148 36 -26 120 -99 186 -163 66 -64 154 -138 195 -165 41 -26 86
-55 99 -63 21 -14 20 -10 -14 59 -93 184 -218 321 -410 447 -165 109 -250 143
-365 148 -47 2 -104 -1 -127 -7z"/>
<path d="M4510 10425 c-41 -13 -94 -28 -116 -34 -105 -28 -319 -210 -414 -351
-24 -36 -57 -96 -73 -135 -15 -38 -39 -88 -51 -110 -33 -57 -62 -155 -76 -261
-13 -106 -2 -222 32 -311 11 -30 18 -56 16 -58 -1 -1 -34 -15 -73 -30 -210
-81 -483 -238 -660 -379 -156 -125 -355 -340 -462 -501 -82 -122 -175 -293
-214 -395 -144 -365 -169 -766 -78 -1220 41 -203 91 -308 312 -653 68 -106
127 -197 131 -204 5 -10 -47 -12 -231 -11 -131 0 -268 -3 -305 -7 l-68 -7 0
141 0 141 -229 0 -228 0 -6 39 c-10 80 -90 159 -264 263 -88 52 -101 64 -268
259 -96 112 -192 216 -214 231 -114 80 -253 50 -268 -59 -10 -78 12 -124 164
-337 l143 -201 0 -61 c0 -92 -2 -93 -183 -60 -84 15 -203 39 -266 53 -109 24
-116 24 -157 8 -99 -38 -142 -163 -89 -264 13 -26 12 -28 -22 -55 -41 -33 -63
-80 -63 -135 0 -75 39 -134 112 -172 l37 -19 -20 -35 c-17 -29 -21 -48 -17
-99 4 -74 36 -125 90 -145 63 -24 63 -24 60 -82 -7 -133 116 -189 283 -129 50
18 87 22 225 25 310 6 597 81 698 182 l43 44 217 -1 217 -2 3 80 3 79 112 6
c62 4 210 7 329 7 l217 0 -140 -202 c-225 -324 -294 -461 -345 -688 -88 -387
-32 -868 146 -1254 149 -325 431 -661 703 -837 l58 -37 -135 -66 c-285 -140
-461 -307 -520 -494 -44 -142 -42 -242 6 -339 46 -91 130 -144 265 -168 225
-39 396 -49 868 -50 706 0 835 19 949 145 110 122 130 295 57 506 l-28 82 246
4 c135 2 247 4 248 3 1 0 -11 -43 -28 -93 -53 -166 -49 -303 11 -422 32 -63
113 -144 168 -167 109 -45 438 -67 909 -60 197 3 408 11 468 17 182 18 353 49
396 70 54 28 110 86 139 145 22 45 25 62 24 165 0 97 -4 126 -26 186 -66 185
-227 339 -500 479 l-117 60 122 73 c182 109 287 191 442 346 161 162 246 276
339 456 118 230 177 425 221 730 34 235 40 363 26 565 -26 359 -111 740 -218
976 -96 211 -300 465 -517 645 -50 42 -102 86 -116 98 -13 11 -32 26 -42 31
-20 12 -24 4 295 488 109 166 185 293 212 355 134 304 181 619 126 845 -57
237 -180 445 -395 666 -224 229 -606 503 -757 541 -19 5 -89 28 -156 52 l-123
43 0 70 c-1 388 -205 722 -504 827 -161 56 -332 32 -494 -69 -84 -52 -88 -51
-128 33 -52 111 -162 198 -282 223 -75 16 -117 13 -202 -14z m786 -2196 c208
-63 324 -210 364 -459 37 -235 -32 -557 -140 -648 -72 -62 -224 -69 -278 -13
-9 10 -58 44 -109 75 -293 180 -426 332 -483 550 -30 112 -12 194 67 314 106
159 376 243 579 181z m-925 -3448 c122 -41 242 -92 388 -165 299 -151 495
-280 636 -421 105 -105 151 -172 187 -271 40 -111 25 -308 -33 -425 -26 -53
-111 -142 -177 -185 -95 -63 -171 -86 -287 -87 -89 0 -113 4 -211 36 -91 30
-133 52 -235 119 -259 172 -308 229 -514 608 -44 80 -93 172 -108 205 -32 64
-77 230 -77 281 0 52 56 148 120 206 67 61 175 128 205 128 12 0 59 -13 106
-29z"/>
</g>
</svg>
