<?xml version="1.0" standalone="no"?>
<!DOCTYPE svg PUBLIC "-//W3C//DTD SVG 20010904//EN"
 "http://www.w3.org/TR/2001/REC-SVG-20010904/DTD/svg10.dtd">
<svg version="1.0" xmlns="http://www.w3.org/2000/svg"
 width="853.000000pt" height="1280.000000pt" viewBox="0 0 853.000000 1280.000000"
 preserveAspectRatio="xMidYMid meet">
<metadata>
Created by potrace 1.15, written by Peter Selinger 2001-2017
</metadata>
<g transform="translate(0.000000,1280.000000) scale(0.100000,-0.100000)"
fill="#ffffff" stroke="none">
<path d="M4860 11200 c-117 -16 -202 -41 -339 -102 -153 -66 -224 -111 -286
-180 -51 -57 -117 -188 -95 -188 25 0 129 55 160 84 126 120 333 210 587 255
71 13 133 31 170 49 32 16 80 37 107 47 40 16 45 20 29 26 -33 12 -263 18
-333 9z"/>
<path d="M5693 11048 c-29 -5 -53 -13 -53 -17 0 -16 107 -78 155 -90 165 -41
330 -144 502 -314 67 -66 130 -125 140 -130 10 -6 51 -32 92 -59 40 -27 76
-46 79 -44 8 9 -97 187 -148 251 -79 100 -178 186 -310 271 -202 130 -304 160
-457 132z"/>
<path d="M4835 10704 c-27 -8 -83 -23 -123 -33 -40 -11 -103 -37 -140 -59
-162 -97 -338 -294 -392 -440 -12 -31 -34 -79 -50 -107 -35 -61 -68 -177 -77
-267 l-6 -68 -95 -51 c-116 -63 -313 -194 -419 -280 -113 -92 -307 -288 -402
-408 -185 -233 -373 -555 -486 -830 -160 -390 -208 -651 -208 -1136 -1 -354
21 -583 80 -845 35 -155 36 -144 -19 -148 l-48 -3 0 141 0 142 -224 -4 -225
-3 -6 35 c-17 90 -84 157 -268 268 -91 55 -102 65 -276 268 -191 222 -231 256
-318 270 -58 9 -124 -22 -146 -69 -40 -83 -18 -134 158 -382 132 -185 153
-231 139 -294 -10 -40 -28 -50 -77 -40 -23 4 -139 27 -256 49 -225 44 -270 46
-315 14 -60 -44 -84 -161 -51 -241 16 -38 16 -39 -27 -63 -24 -14 -58 -91 -58
-133 0 -21 6 -52 14 -70 14 -36 75 -93 112 -107 l24 -10 -20 -37 c-27 -51 -26
-126 3 -178 16 -29 37 -47 77 -67 l55 -27 0 -60 c0 -69 21 -105 76 -133 47
-24 99 -22 201 7 73 21 113 26 255 29 300 8 578 81 676 180 l36 36 223 2 223
3 0 75 c0 57 4 77 15 82 8 4 54 7 102 7 81 1 87 0 94 -21 18 -59 133 -274 199
-373 167 -249 364 -426 613 -551 287 -143 747 -151 1367 -24 105 22 221 49
260 60 38 11 75 20 82 20 20 0 36 -69 29 -133 -7 -73 -57 -223 -99 -297 -105
-187 -320 -469 -738 -966 -102 -122 -206 -247 -229 -279 -54 -73 -80 -154 -80
-250 l0 -74 -47 -6 c-476 -63 -913 -284 -1082 -545 -64 -99 -86 -176 -86 -305
0 -100 2 -115 27 -161 34 -65 106 -128 166 -148 112 -36 352 -62 710 -77 401
-17 939 9 1071 52 124 40 222 175 237 328 l6 56 173 0 173 0 11 -70 c7 -39 23
-94 36 -123 33 -70 114 -155 174 -181 118 -50 631 -81 1055 -62 369 16 644 49
715 85 162 84 215 276 140 503 -76 232 -371 456 -770 587 -74 24 -172 51 -219
60 -47 9 -95 19 -107 21 -21 5 -18 11 41 88 314 409 668 979 896 1442 49 99
101 191 115 205 44 41 63 88 100 250 7 30 28 96 47 145 118 302 215 662 268
990 47 286 55 390 54 690 0 273 -2 303 -33 504 -137 917 -377 1572 -770 2099
-118 158 -349 391 -481 484 -104 74 -285 172 -299 164 -5 -3 -26 44 -47 105
-52 153 -109 246 -213 349 -98 97 -186 150 -297 176 -141 33 -307 0 -441 -87
-77 -51 -84 -49 -127 37 -36 69 -115 153 -175 184 -40 20 -157 50 -191 49 -8
0 -37 -7 -65 -15z m228 -2386 c188 -100 353 -371 510 -838 69 -203 97 -344
104 -520 8 -190 -26 -365 -88 -456 -52 -77 -152 -140 -270 -171 -100 -26 -123
-17 -220 83 -209 213 -337 488 -429 924 -23 107 -50 235 -60 284 -11 49 -24
142 -31 206 -10 103 -9 123 6 176 39 135 124 232 266 303 100 50 132 51 212 9z"/>
</g>
</svg>
