<?xml version="1.0" ?><!DOCTYPE svg  PUBLIC '-//W3C//DTD SVG 1.1//EN'  'http://www.w3.org/Graphics/SVG/1.1/DTD/svg11.dtd' [
	<!ENTITY stroke_color "#666666">
	<!ENTITY fill_color "#ffffff">
]><svg height="1280" preserveAspectRatio="xMidYMid meet" width="912" xmlns="http://www.w3.org/2000/svg">
 <metadata>Created by potrace 1.15, written by Peter Selinger 2001-2017</metadata>

 <g>
  <title>background</title>
  <rect fill="&fill_color;" height="1282" id="canvas_background" width="914" x="-1" y="-1"/>
 </g>
 <g>
  <title>Layer 1</title>
  <g fill="#000000" id="svg_1" transform="translate(0,1280) scale(0.10000000149011612,-0.10000000149011612) ">
   <path d="m4359.44836,10450.895451c-16.670094,-1.339753 -69.458725,-5.359011 -116.690658,-9.378269c-567.894538,-48.231095 -1068.553029,-257.232509 -1488.6394,-620.975355c-261.720477,-227.088075 -501.769831,-513.795142 -720.703733,-860.791079l-58.345329,-92.442933l1.667009,-58.27924l1.667009,-58.27924l657.913046,-531.211927c361.741041,-292.066078 660.135725,-531.211927 662.358404,-531.211927c2.778349,0 29.4505,44.211838 60.012339,99.141696c71.125735,125.936749 117.246328,194.934011 187.260723,279.338428c157.254554,188.235248 341.736928,312.832244 537.888368,362.403093c91.685517,22.775795 242.827704,29.474558 320.065806,13.397527c193.373091,-40.19258 372.298767,-187.565371 452.315219,-371.781361c72.237074,-168.138958 76.126763,-412.643817 8.890717,-588.151415c-26.67215,-69.667138 -46.676263,-104.500707 -89.462838,-156.081184c-97.242215,-116.558481 -248.940071,-190.914753 -437.867804,-214.360424c-33.895858,-4.019258 -208.931846,-6.698763 -426.198738,-6.698763l-368.964749,0l0,-847.393553l0,-847.393553l360.074032,0c467.873973,0 606.235754,-8.708392 776.826383,-50.240724c178.370006,-43.541961 320.065806,-130.625884 393.96989,-243.165106c30.006169,-44.881714 75.571093,-154.741431 88.351499,-213.020672c14.447415,-64.308127 25.560811,-174.167845 25.560811,-250.533746c0,-302.7841 -110.578291,-511.115637 -347.293626,-653.129418c-158.921563,-95.792315 -330.623532,-137.324647 -530.108991,-128.616255c-267.832845,11.387898 -492.323445,125.266873 -750.709903,381.829506c-81.683461,81.055035 -215.044213,249.193993 -297.283344,374.460866l-77.238102,117.898233l-22.782462,-24.115548c-12.780405,-14.067403 -284.502939,-332.258658 -604.568745,-707.389401l-581.786283,-682.603977l0,-52.92023l0,-53.590106l60.568008,-81.055035c267.277175,-359.723587 569.561547,-637.722263 920.189192,-846.0538c487.878086,-289.386573 1045.214898,-431.400354 1630.890869,-415.993199c637.908933,17.416784 1154.126179,211.680919 1591.993983,599.539312c180.592686,160.100442 360.074032,375.130743 486.766747,584.132157c257.830788,424.031715 388.968861,957.923147 375.632786,1523.968643c-3.889689,152.061926 -9.446387,223.068817 -26.67215,348.33569c-51.677292,371.111485 -175.035988,692.652121 -381.189484,992.756716c-95.575206,139.334276 -275.612222,336.277916 -403.971946,441.448499c-26.116481,22.105919 -47.787603,42.202209 -47.787603,45.55159c0,3.349382 17.225764,27.464929 37.785547,53.590106c21.115452,26.795053 61.679348,83.064664 90.574178,125.266873c345.626617,501.737368 478.987369,945.865373 455.093568,1511.240992c-16.670094,389.868022 -80.016451,693.321998 -209.487515,999.455479c-157.254554,372.451237 -422.30905,703.370143 -760.156289,948.544878c-289.503967,210.341166 -599.012047,331.588782 -978.534521,381.829506c-72.792744,10.048145 -385.079173,18.756537 -457.871917,12.72765z" id="svg_2" stroke="&stroke_color;"/>
  </g>
  <ellipse cx="522.002353" cy="811.089385" fill="#fff" id="svg_4" stroke="#000" stroke-width="1.5"/>
 </g>
</svg>