<svg width="200" height="200" xmlns="http://www.w3.org/2000/svg" preserveAspectRatio="xMidYMid meet">
 <metadata>Created by potrace 1.15, written by Peter Selinger 2001-2017</metadata>

 <g>
  <title>background</title>
  <rect fill="none" id="canvas_background" height="202" width="202" y="-1" x="-1"/>
 </g>
 <g>
  <title>Layer 1</title>
  <ellipse stroke="#000" ry="123.99999" rx="105.999998" id="svg_3" cy="100.421883" cx="100.000001" stroke-width="1.5" fill="#fff"/>
  <g id="svg_1" fill="#000000" transform="translate(0,200) scale(0.10000000149011612,-0.10000000149011612) ">
   <path id="svg_2" d="m383,1338c-6,-7 -34,-79 -64,-160l-54,-147l-80,-3c-75,-3 -80,-5 -83,-26c-3,-23 -3,-23 99,-20l102,3l46,123c25,67 48,122 52,122c3,0 53,-127 111,-282c96,-256 108,-283 128,-283c21,0 33,27 129,283c58,155 108,282 112,282c3,0 52,-125 109,-277c57,-153 109,-285 116,-293c12,-12 16,-12 28,0c8,8 60,140 117,293c57,152 106,277 110,277c3,0 52,-125 109,-277c57,-153 109,-285 116,-293c21,-22 36,0 79,115c20,55 46,124 57,153l19,52l80,0c78,0 80,1 77,23c-3,21 -8,22 -94,25c-65,2 -94,-1 -101,-10c-5,-7 -29,-66 -53,-130c-24,-65 -46,-118 -49,-118c-3,0 -53,125 -110,278c-57,152 -109,284 -117,292c-12,13 -16,13 -28,0c-7,-8 -59,-140 -116,-292c-57,-153 -106,-278 -109,-278c-4,0 -53,125 -110,278c-57,152 -109,284 -117,292c-12,13 -16,13 -28,0c-7,-8 -59,-140 -116,-292c-57,-153 -106,-278 -109,-278c-4,0 -53,125 -110,278c-100,268 -115,302 -131,302c-4,0 -12,-6 -17,-12z"/>
  </g>
 </g>
</svg>