<svg width="50" height="50" xmlns="http://www.w3.org/2000/svg">
 <g>
  <title>background</title>
  <rect x="-1" y="-1" width="52" height="52" id="canvas_background" fill="none"/>
 </g>

 <g>
  <title>Layer 1</title>
  <ellipse stroke="#000" ry="30.5" rx="26.000001" id="svg_2" cy="24.921876" cx="25" fill-opacity="null" stroke-opacity="null" stroke-width="1.5" fill="#fff"/>
  <g id="surface1">
   <path d="m25,5c-10.64844,0 -19.36719,8.37891 -19.94531,18.89063c-0.04688,0.71875 0.29297,1.40625 0.89453,1.80468c0.60156,0.39453 1.37109,0.4375 2.01172,0.10938c0.64062,-0.32813 1.05859,-0.97656 1.08594,-1.69531c0.46484,-8.4336 7.39453,-15.10938 15.95312,-15.10938c4.58594,0 8.69922,1.92578 11.60938,5l-2.60938,0c-0.72266,-0.01172 -1.39062,0.36719 -1.75391,0.99219c-0.36718,0.62109 -0.36718,1.39453 0,2.01562c0.36329,0.625 1.03125,1.00391 1.75391,0.99219l6.26172,0c0.22656,0.03906 0.45703,0.03906 0.6875,0l3.05078,0l0,-10c0.00781,-0.53906 -0.20312,-1.05859 -0.58594,-1.44141c-0.38281,-0.38281 -0.90234,-0.59375 -1.44531,-0.58593c-1.10156,0.01562 -1.98437,0.92187 -1.96875,2.02734l0,3.77734c-3.66797,-4.15625 -9.03516,-6.77734 -15,-6.77734zm18.03125,18.97266c-1.10547,-0.04688 -2.03516,0.8125 -2.07812,1.91797c-0.46485,8.43359 -7.39454,15.10937 -15.95313,15.10937c-4.58594,0 -8.69531,-1.92578 -11.60937,-5l2.60937,0c0.72266,0.01172 1.39063,-0.36719 1.75391,-0.99219c0.36718,-0.62109 0.36718,-1.39453 0,-2.01562c-0.36328,-0.625 -1.03125,-1.00391 -1.75391,-0.99219l-6.28125,0c-0.21094,-0.03125 -0.42187,-0.03125 -0.63281,0l-3.08594,0l0,10c-0.01172,0.72266 0.36719,1.39063 0.99219,1.75391c0.62109,0.36718 1.39453,0.36718 2.01562,0c0.625,-0.36328 1.00391,-1.03125 0.99219,-1.75391l0,-3.77734c3.66797,4.15625 9.03516,6.77734 15,6.77734c10.64844,0 19.36719,-8.37891 19.94531,-18.89062c0.03907,-0.53907 -0.14453,-1.07032 -0.5039,-1.47266c-0.36328,-0.40234 -0.8711,-0.64063 -1.41016,-0.66406z" id="svg_1"/>
  </g>
 </g>
</svg>