<svg width="1010" height="1048" xmlns="http://www.w3.org/2000/svg">
 <metadata>Svg Vector Icons : http://www.onlinewebfonts.com/icon</metadata>
 <defs>
  <filter height="200%" width="200%" y="-50%" x="-50%" id="svg_11_blur">
   <feGaussianBlur stdDeviation="0" in="SourceGraphic"/>
  </filter>
 </defs>
 <g>
  <title>background</title>
  <rect x="-1" y="-1" width="1012" height="1050" id="canvas_background" fill="none"/>
 </g>
 <g>
  <title>Layer 1</title>
  <ellipse stroke="#000" filter="url(#svg_11_blur)" ry="630.017055" rx="538.014566" id="svg_11" cy="526.764201" cx="510.763861" stroke-width="1.5" fill="#fff"/>
  <line fill="none" stroke-width="1.5" x1="373" y1="283.000002" x2="347" y2="468" id="svg_6" stroke-linejoin="null" stroke-linecap="null"/>
  <path id="svg_7" d="m152,187" opacity="0.5" stroke-width="1.5" stroke="#000" fill="#fff"/>
  <g id="svg_1">
   <g transform="translate(0,511) scale(0.10000000149011612,-0.10000000149011612) " id="svg_2">
    <path d="m4132.4,4968.2c-1134.6,-171.8 -2806,-1936.3 -2802.5,-2959.9c3.6,-111 21.5,-236.2 46.5,-282.8c25.1,-46.5 787.4,-823.2 1689.4,-1725.1c1796.7,-1796.7 1678.6,-1703.7 2097.4,-1675l211.2,14.3l57.3,-179c28.6,-100.2 64.4,-315 75.1,-476c25.1,-340 60.9,-304.2 -436.7,-436.7c-615.6,-164.6 -1113.1,-508.3 -1199,-823.2c-125.3,-461.7 347.2,-898.3 1238.4,-1138.2c336.4,-93 397.3,-96.7 1177.5,-96.7c776.7,0 841.1,3.6 1163.2,93.1c590.6,161.1 937.7,357.9 1145.3,644.2c150.3,207.6 153.9,479.6 3.6,712.2c-121.7,193.3 -408,393.7 -744.5,519c-132.4,50.1 -264.8,107.4 -286.3,128.9c-25.1,21.5 -46.5,107.4 -46.5,196.8c0,447.4 -250.5,1080.9 -583.4,1478.2l-196.9,232.6l232.7,247.1c461.7,486.8 830.4,1063 955.6,1485.4c96.6,336.4 78.7,511.8 -114.5,952.1c-415.2,955.6 -948.5,1503.2 -1531.9,1578.4c-171.8,21.5 -189.7,39.4 -909.1,751.6c-816,805.3 -837.5,819.6 -1241.9,758.7zm375.8,-221.9c103.8,-57.3 1356.5,-1299.2 1331.5,-1320.7c-10.7,-7.2 -107.4,-57.3 -218.3,-107.4c-651.4,-311.4 -1199,-1256.3 -1413.8,-2441c-68,-386.5 -89.5,-1134.6 -39.4,-1503.2l28.6,-214.7l-1306.4,1306.4c-937.7,934.1 -1320.7,1338.6 -1342.2,1417.3c-103.8,372.2 325.7,1191.8 962.8,1839.7c744.5,758.8 1635.7,1213.3 1997.2,1023.6zm2197.6,-2158.2c368.7,-368.6 672.9,-680 672.9,-690.8s-96.6,-43 -214.8,-64.4c-934.1,-193.3 -2344.3,-1571.2 -2634.3,-2573.4c-68,-236.2 -93.1,-211.2 -157.5,157.5c-32.2,168.2 -39.4,422.3 -25.1,751.6c64.5,1571.2 794.7,2913.4 1668,3085.2c10.7,3.6 318.5,-297.1 690.8,-665.7zm-75.2,540.4c150.3,-75.2 400.8,-311.4 547.6,-511.8c125.3,-175.4 322.1,-504.7 300.6,-504.7c-7.2,0 -268.4,257.7 -583.4,572.7c-554.7,558.4 -586.9,612.1 -264.8,443.8zm1063,-1574.8c121.7,-136 103.8,-214.7 -25.1,-118.1c-368.6,272 -1449.5,-343.6 -2197.5,-1249.1c-379.4,-461.7 -604.9,-873.3 -651.4,-1195.4c-32.2,-200.4 50.1,-422.3 157.5,-422.3c100.2,0 125.3,60.8 75.2,182.5c-25.1,57.3 -35.8,114.5 -28.6,125.3c21.5,17.9 243.4,-268.4 243.4,-315c0,-39.4 -239.8,-75.2 -340,-50.1c-218.3,53.7 -300.6,250.5 -239.8,554.8c168.2,791 1177.5,1947.1 2093.8,2401.6c465.1,229 755,257.6 912.5,85.8zm-107.4,-307.8c35.8,-35.8 60.8,-35.8 121.7,3.6c75.1,46.5 75.1,42.9 50.1,-125.3c-28.6,-221.9 -225.5,-637.1 -443.8,-941.3c-200.5,-282.7 -640.7,-791 -708.7,-816.1c-25.1,-10.7 -164.6,60.8 -307.8,157.5c-143.2,93 -368.6,221.9 -501.1,279.2c-132.4,60.8 -243.4,128.8 -243.4,153.9c0,25 164.7,207.6 368.6,411.6c379.4,379.4 841.1,715.8 1152.5,844.7c204.1,82.3 447.5,96.7 511.9,32.2zm-1800.3,-1667.9c959.2,-479.6 1449.6,-1148.9 1539,-2108.1c14.3,-139.6 42.9,-282.8 64.4,-315c25.1,-28.6 168.2,-100.2 322.1,-157.5c375.8,-139.6 615.6,-300.6 723,-486.8c103.8,-171.8 110.9,-264.9 35.8,-408c-196.9,-383 -969.9,-680 -1911.2,-740.9c-1338.6,-82.3 -2634.3,440.3 -2494.7,1005.8c64.4,254.1 608.5,583.4 1199,726.6c422.3,103.8 454.6,143.2 443.8,533.3c-17.9,547.6 -189.7,1027.2 -490.3,1360.1l-157.5,171.8l111,214.7c171.8,340 204,379.4 289.9,354.3c39.4,-14.3 189.7,-78.7 325.7,-150.3z" id="svg_3"/>
    <path d="m4418.7,-3496.4c-68,-25.1 -53.7,-193.3 25.1,-325.7c153.9,-250.5 594.1,-440.3 1191.8,-504.7c383,-43 461.7,-28.6 447.4,82.3c-10.7,68 -42.9,78.8 -297.1,100.2c-590.6,53.7 -1088.1,243.4 -1166.8,451c-82.3,207.6 -110.9,236.2 -200.4,196.9z" id="svg_4"/>
   </g>
  </g>
 </g>
</svg>