<?xml version="1.0" encoding="utf-8"?>
<!-- Svg Vector Icons : http://www.onlinewebfonts.com/icon -->
<!DOCTYPE svg PUBLIC "-//W3C//DTD SVG 1.1//EN" "http://www.w3.org/Graphics/SVG/1.1/DTD/svg11.dtd">
<svg version="1.1" xmlns="http://www.w3.org/2000/svg" xmlns:xlink="http://www.w3.org/1999/xlink" x="0px" y="0px" viewBox="0 0 1000 1000" enable-background="new 0 0 1000 1000" xml:space="preserve">
<metadata> Svg Vector Icons : http://www.onlinewebfonts.com/icon </metadata>
<g><g transform="translate(0.000000,511.000000) scale(0.100000,-0.100000)"><path d="M4112.4,4988.2c-1134.6-171.8-2806-1936.3-2802.5-2959.9c3.6-111,21.5-236.2,46.5-282.8c25.1-46.5,787.4-823.2,1689.4-1725.1c1796.7-1796.7,1678.6-1703.7,2097.4-1675l211.2,14.3l57.3-179c28.6-100.2,64.4-315,75.1-476c25.1-340,60.9-304.2-436.7-436.7c-615.6-164.6-1113.1-508.3-1199-823.2c-125.3-461.7,347.2-898.3,1238.4-1138.2c336.4-93,397.3-96.7,1177.5-96.7c776.7,0,841.1,3.6,1163.2,93.1c590.6,161.1,937.7,357.9,1145.3,644.2c150.3,207.6,153.9,479.6,3.6,712.2c-121.7,193.3-408,393.7-744.5,519c-132.4,50.1-264.8,107.4-286.3,128.9c-25.1,21.5-46.5,107.4-46.5,196.8c0,447.4-250.5,1080.9-583.4,1478.2l-196.9,232.6L6954.2-538c461.7,486.8,830.4,1063,955.6,1485.4c96.6,336.4,78.7,511.8-114.5,952.1c-415.2,955.6-948.5,1503.2-1531.9,1578.4c-171.8,21.5-189.7,39.4-909.1,751.6C4538.3,5034.8,4516.8,5049.1,4112.4,4988.2z M4488.2,4766.3c103.8-57.3,1356.5-1299.2,1331.5-1320.7c-10.7-7.2-107.4-57.3-218.3-107.4c-651.4-311.4-1199-1256.3-1413.8-2441c-68-386.5-89.5-1134.6-39.4-1503.2l28.6-214.7L2870.4,485.7C1932.7,1419.8,1549.7,1824.3,1528.2,1903c-103.8,372.2,325.7,1191.8,962.8,1839.7C3235.5,4501.5,4126.7,4956,4488.2,4766.3z M6685.8,2608.1c368.7-368.6,672.9-680,672.9-690.8s-96.6-43-214.8-64.4C6209.8,1659.6,4799.6,281.7,4509.6-720.5c-68-236.2-93.1-211.2-157.5,157.5c-32.2,168.2-39.4,422.3-25.1,751.6C4391.5,1759.8,5121.7,3102,5995,3273.8C6005.7,3277.4,6313.5,2976.7,6685.8,2608.1z M6610.6,3148.5c150.3-75.2,400.8-311.4,547.6-511.8c125.3-175.4,322.1-504.7,300.6-504.7c-7.2,0-268.4,257.7-583.4,572.7C6320.7,3263.1,6288.5,3316.8,6610.6,3148.5z M7673.6,1573.7c121.7-136,103.8-214.7-25.1-118.1C7279.9,1727.6,6199,1112,5451,206.5c-379.4-461.7-604.9-873.3-651.4-1195.4c-32.2-200.4,50.1-422.3,157.5-422.3c100.2,0,125.3,60.8,75.2,182.5c-25.1,57.3-35.8,114.5-28.6,125.3c21.5,17.9,243.4-268.4,243.4-315c0-39.4-239.8-75.2-340-50.1c-218.3,53.7-300.6,250.5-239.8,554.8c168.2,791,1177.5,1947.1,2093.8,2401.6C7226.2,1716.9,7516.1,1745.5,7673.6,1573.7z M7566.2,1265.9c35.8-35.8,60.8-35.8,121.7,3.6c75.1,46.5,75.1,42.9,50.1-125.3c-28.6-221.9-225.5-637.1-443.8-941.3c-200.5-282.7-640.7-791-708.7-816.1c-25.1-10.7-164.6,60.8-307.8,157.5c-143.2,93-368.6,221.9-501.1,279.2c-132.4,60.8-243.4,128.8-243.4,153.9c0,25,164.7,207.6,368.6,411.6c379.4,379.4,841.1,715.8,1152.5,844.7C7258.4,1316,7501.8,1330.4,7566.2,1265.9z M5765.9-402c959.2-479.6,1449.6-1148.9,1539-2108.1c14.3-139.6,42.9-282.8,64.4-315c25.1-28.6,168.2-100.2,322.1-157.5c375.8-139.6,615.6-300.6,723-486.8c103.8-171.8,110.9-264.9,35.8-408c-196.9-383-969.9-680-1911.2-740.9c-1338.6-82.3-2634.3,440.3-2494.7,1005.8c64.4,254.1,608.5,583.4,1199,726.6c422.3,103.8,454.6,143.2,443.8,533.3c-17.9,547.6-189.7,1027.2-490.3,1360.1l-157.5,171.8L5150.3-606c171.8,340,204,379.4,289.9,354.3C5479.6-266,5629.9-330.4,5765.9-402z"/><path d="M4398.7-3476.4c-68-25.1-53.7-193.3,25.1-325.7c153.9-250.5,594.1-440.3,1191.8-504.7c383-43,461.7-28.6,447.4,82.3c-10.7,68-42.9,78.8-297.1,100.2c-590.6,53.7-1088.1,243.4-1166.8,451C4516.8-3465.7,4488.2-3437.1,4398.7-3476.4z"/></g></g>
</svg>